# xmcd
#
# Track frame offsets: 
#        182
#        15282
#        31832
#        48382
#        63432
#        79400
#        94395
#        111497
#        128457
#        145895
#        164732
#        178482
#        193907
#        213507
#        230307
#        247085
#        264472
#        278740
#
# Disc length: 4698 seconds
#
# Revision: 1
# Processed by: cddbd v1.5.2PL0 Copyright (c) Steve Scherf et al.
# Submitted via: ExactAudioCopy v0.99pb5
#
DISCID=0d125812
DTITLE=Various Artist - Die goldene Stimmgabel 1998
DYEAR=1998
DGENRE=Schlager
TTITLE0=Brunner and Brunner - Wenn Du mich in die Arme nimmst
TTITLE1=Die Flippers - Liebe ist mehr als nur eine Nacht
TTITLE2=Vivian Lindt - Du hast mir unheimlich gefehlt
TTITLE3=Die Prinzen - Du musst ein Schwein sein
TTITLE4=Wolfgang Petry - So ein Schwein...
TTITLE5=Truck Stop - Echte Kerle
TTITLE6=Stefanie Hertel - Es ist gut, dass es Freunde gibt
TTITLE7=Guildo Horn and die Orthopädischen Strümpfe - Danke!
TTITLE8=Claudia Jung and Nino de Angelo - Hand in Hand
TTITLE9=Pur - Endlich ich
TTITLE10=Die Paldauer - Ich entscheide mich für Liebe
TTITLE11=Oswald Sattler - Ciao Maria ciao
TTITLE12=Rosenstolz - Lachen
TTITLE13=André Rieu - Love theme from "Romeo and Juliet"
TTITLE14=Hansi Hinterseer - Elisabeth
TTITLE15=Juliane Werding - Männer kommen und geh'n
TTITLE16=Nicole - Halt dich fest
TTITLE17=Various Artist - Heino Gaze Medley
EXTD=
EXTT0=
EXTT1=
EXTT2=
EXTT3=
EXTT4=
EXTT5=
EXTT6=
EXTT7=
EXTT8=
EXTT9=
EXTT10=
EXTT11=
EXTT12=
EXTT13=
EXTT14=
EXTT15=
EXTT16=
EXTT17=
PLAYORDER=
